# xmcd
#
# Track frame offsets:
# 150
# 19727
# 37287
# 52636
# 70157
#
# Disc length: 1123 seconds
#
# Revision: 0
# Processed by: cddbd v1.5.1PL0 Copyright (c) Steve Scherf et al.
# Submitted via: Audion 3.0.2 (http://www.panic.com/audion/)
#
DISCID=3a046105
DTITLE=Jen Foster - Songs From The Underdogs
DYEAR=1900
DGENRE=
TTITLE0=Taking Bob Dylan
TTITLE1=The Underdogs
TTITLE2=Saturn
TTITLE3=All This Time
TTITLE4=Amen
EXTD=
EXTT0=
EXTT1=
EXTT2=
EXTT3=
EXTT4=
PLAYORDER=
